<?xml version="1.0" standalone="no"?>
<!DOCTYPE svg PUBLIC "-//W3C//DTD SVG 20010904//EN"
 "http://www.w3.org/TR/2001/REC-SVG-20010904/DTD/svg10.dtd">
<svg version="1.0" xmlns="http://www.w3.org/2000/svg"
 width="1920.000000pt" height="1080.000000pt" viewBox="0 0 1920.000000 1080.000000"
 preserveAspectRatio="xMidYMid meet">
<metadata>
Created by potrace 1.16, written by Peter Selinger 2001-2019
</metadata>
<g transform="translate(0.000000,1080.000000) scale(0.100000,-0.100000)"
fill="#000000" stroke="none">
<path d="M0 5400 l0 -5400 9600 0 9600 0 0 5400 0 5400 -9600 0 -9600 0 0
-5400z m6978 4702 c3 -17 -2 -22 -17 -22 -14 0 -21 6 -21 18 0 38 33 41 38 4z
m1822 13 c10 -12 10 -18 0 -29 -14 -18 -40 -10 -40 13 0 32 20 40 40 16z m340
-120 c0 -113 2 -135 15 -135 8 0 15 -4 15 -10 0 -5 -25 -10 -55 -10 -30 0 -55
5 -55 10 0 6 6 10 14 10 21 0 26 23 26 131 0 88 -2 100 -20 111 -30 19 -24 28
20 28 l40 0 0 -135z m2660 128 c0 -5 -19 -81 -42 -170 -27 -106 -46 -163 -55
-163 -17 0 -19 -11 28 168 44 169 45 172 60 172 5 0 9 -3 9 -7z m375 -91 l0
-94 28 33 c17 21 25 40 21 51 -5 16 3 18 90 18 57 0 96 -4 96 -10 0 -5 -4 -10
-10 -10 -15 0 -12 -26 4 -39 12 -10 17 -8 27 10 9 17 9 24 0 27 -27 9 -7 22
34 22 25 0 45 -4 45 -10 0 -5 -7 -10 -14 -10 -8 0 -27 -16 -41 -35 l-27 -34
33 -46 c18 -25 38 -45 46 -45 7 0 13 -4 13 -10 0 -6 -26 -10 -57 -10 -52 1
-56 2 -40 14 18 14 18 15 1 41 l-18 27 -18 -22 c-20 -25 -23 -40 -8 -40 6 0
10 -4 10 -10 0 -6 -28 -10 -65 -10 l-64 0 -31 45 c-34 49 -50 51 -50 4 0 -19
5 -29 15 -29 8 0 15 -4 15 -10 0 -5 -25 -10 -55 -10 -30 0 -55 5 -55 10 0 6 7
10 15 10 12 0 15 20 15 119 0 96 -3 120 -15 125 -30 11 -15 27 23 24 l37 -3 0
-93z m-5721 62 c21 -20 20 -40 0 -48 -9 -4 -17 -5 -18 -4 -17 44 -54 60 -75
34 -20 -24 -5 -62 30 -76 54 -23 89 -59 89 -91 0 -84 -159 -109 -168 -26 -4
35 21 36 36 1 10 -20 18 -25 44 -22 38 4 58 30 42 56 -6 9 -30 27 -54 40 -24
13 -49 31 -56 40 -20 26 -17 63 8 89 26 28 97 32 122 7z m1317 -13 c45 -55 -1
-141 -75 -141 -31 0 -36 -3 -36 -24 0 -37 10 -56 31 -56 10 0 19 -4 19 -10 0
-6 -27 -10 -60 -10 -33 0 -60 4 -60 10 0 6 7 10 15 10 12 0 15 19 15 110 0 89
-3 112 -15 116 -8 4 -15 11 -15 16 0 6 31 9 81 6 70 -3 83 -6 100 -27z m1699
-6 c0 -33 2 -35 35 -35 19 0 35 -5 35 -11 0 -5 10 -3 22 5 32 22 55 20 83 -9
22 -21 25 -33 25 -95 0 -56 3 -70 15 -70 8 0 15 -4 15 -10 0 -5 -16 -10 -35
-10 l-35 0 0 74 c0 54 -4 79 -16 90 -39 40 -64 10 -64 -76 0 -54 3 -68 15 -68
8 0 15 -4 15 -10 0 -6 -59 -10 -157 -9 -147 0 -156 1 -135 16 20 14 22 23 22
120 0 96 -2 105 -20 110 -48 13 -12 23 80 23 l100 0 0 -35z m1482 3 c3 -29 7
-33 36 -36 17 -2 32 -7 32 -12 0 -5 14 -2 31 7 59 30 109 -15 109 -98 0 -80
-49 -126 -106 -100 -23 10 -24 9 -24 -29 0 -29 4 -40 15 -40 8 0 15 -4 15 -10
0 -5 -25 -10 -55 -10 -30 0 -55 5 -55 10 0 6 6 10 14 10 21 0 26 23 26 125 0
97 -5 125 -22 125 -12 0 -48 39 -48 52 0 4 -18 8 -40 8 l-40 0 0 -45 0 -45 45
0 c25 0 45 -4 45 -10 0 -5 -20 -10 -45 -10 l-45 0 0 -55 0 -55 45 0 c39 0 45
3 51 25 10 39 34 31 34 -10 l0 -35 -105 0 c-63 0 -105 4 -105 10 0 6 7 10 15
10 12 0 15 19 15 110 0 89 -3 112 -15 116 -38 15 -7 24 79 24 l95 0 3 -32z
m670 -90 c3 -119 4 -123 26 -126 12 -2 22 -8 22 -13 0 -5 -34 -9 -75 -9 -72 0
-105 15 -47 22 l27 3 3 104 c3 104 3 105 -17 87 -12 -11 -27 -16 -37 -12 -19
7 -20 7 26 40 66 46 69 41 72 -96z m370 91 c27 -36 17 -64 -49 -140 l-56 -64
43 -3 c36 -3 47 1 61 19 19 26 34 11 25 -27 -6 -23 -10 -24 -86 -24 -97 0
-100 8 -36 83 52 62 66 88 66 120 0 53 -61 60 -68 8 -4 -24 -20 -24 -36 2 -8
12 -5 21 9 37 28 31 101 25 127 -11z m659 -46 c19 -42 36 -80 37 -85 2 -4 -3
-8 -11 -8 -8 0 -27 28 -42 63 l-29 62 -28 -62 c-16 -37 -34 -63 -43 -63 -8 0
-15 2 -15 5 0 14 81 165 88 165 5 0 24 -35 43 -77z m211 60 c10 -9 18 -30 18
-48 0 -34 -19 -64 -84 -132 l-40 -43 53 0 c44 0 54 3 58 20 9 32 23 23 23 -15
l0 -35 -85 0 c-57 0 -85 4 -85 11 0 7 19 35 43 63 63 75 77 97 77 127 0 15 -7
32 -15 39 -19 16 -55 3 -55 -19 0 -23 -9 -31 -26 -24 -19 7 -18 38 2 57 21 21
92 21 116 -1z m-4812 -28 c0 -20 5 -25 25 -25 14 0 25 -4 25 -10 0 -5 -11 -10
-25 -10 -24 0 -25 -2 -25 -64 0 -80 6 -96 36 -96 27 0 32 -15 8 -24 -58 -22
-84 12 -84 111 0 61 -3 73 -16 73 -13 0 -11 6 10 25 14 13 26 29 26 35 0 5 5
10 10 10 6 0 10 -11 10 -25z m610 0 c0 -20 5 -25 25 -25 14 0 25 -4 25 -10 0
-5 -11 -10 -25 -10 -26 0 -26 0 -23 -77 3 -73 5 -78 26 -81 30 -5 23 -26 -10
-30 -44 -5 -58 20 -58 109 0 64 -3 79 -15 79 -8 0 -15 5 -15 10 0 6 7 10 15
10 9 0 20 11 25 25 5 14 14 25 20 25 5 0 10 -11 10 -25z m1730 -25 c50 -1 53
-2 36 -15 -18 -14 -18 -16 7 -77 16 -39 27 -57 31 -48 17 45 36 104 36 111 0
5 -7 9 -15 9 -8 0 -15 5 -15 10 0 6 20 10 45 10 43 0 60 -12 31 -23 -7 -3 -31
-54 -52 -114 -21 -59 -48 -118 -61 -130 -22 -23 -83 -32 -83 -13 0 6 8 10 18
10 17 0 50 28 65 56 4 6 -11 51 -32 100 -38 87 -39 89 -74 90 -32 1 -35 -1
-28 -20 5 -11 4 -33 -1 -49 -9 -25 -20 -31 -72 -39 -11 -2 -21 -9 -24 -15 -2
-9 10 -13 42 -13 79 0 111 -56 61 -105 -19 -20 -34 -25 -73 -25 -26 0 -56 6
-66 13 -23 17 -24 67 -2 79 11 6 14 17 10 32 -3 13 -1 27 5 31 8 4 7 13 -4 28
-20 29 -19 60 3 88 15 17 30 22 70 23 28 1 54 5 58 9 4 4 12 3 18 -3 5 -5 35
-10 66 -10z m-3713 -14 c25 -21 28 -31 28 -86 0 -55 -3 -65 -28 -86 -33 -28
-54 -30 -85 -8 -22 15 -22 15 -22 -26 0 -27 5 -43 15 -46 31 -12 13 -24 -35
-24 -27 0 -50 5 -50 10 0 6 7 10 15 10 13 0 15 21 15 125 0 104 -2 125 -15
125 -8 0 -15 5 -15 10 0 6 16 10 35 10 19 0 35 -5 35 -11 0 -5 10 -3 22 5 31
22 52 20 85 -8z m174 14 c10 -6 19 -17 19 -26 0 -22 -29 -29 -43 -10 -23 31
-41 2 -45 -73 -4 -67 -3 -71 17 -71 11 0 21 -4 21 -10 0 -5 -25 -10 -55 -10
-53 0 -72 11 -40 24 11 4 15 22 15 76 0 54 -4 72 -15 76 -25 10 -17 24 15 24
20 0 30 -5 30 -15 0 -12 4 -11 20 5 23 23 33 24 61 10z m364 -15 c22 -21 25
-33 25 -95 0 -56 3 -70 15 -70 8 0 15 -4 15 -10 0 -5 -16 -10 -35 -10 l-35 0
0 74 c0 54 -4 79 -16 90 -39 40 -64 10 -64 -76 0 -54 3 -68 15 -68 8 0 15 -4
15 -10 0 -5 -25 -10 -55 -10 -30 0 -55 5 -55 10 0 6 6 10 14 10 17 0 26 30 26
87 0 51 -8 73 -26 73 -8 0 -14 5 -14 10 0 6 16 10 35 10 19 0 35 -5 35 -11 0
-5 10 -3 22 5 32 22 55 20 83 -9z m285 3 c0 -14 -5 -18 -18 -14 -16 5 -18 2
-14 -24 7 -46 -20 -80 -63 -80 -24 0 -35 -5 -35 -15 0 -11 11 -15 38 -15 50 0
82 -23 82 -61 0 -46 -31 -69 -92 -69 -58 0 -88 19 -88 56 0 13 8 29 18 36 17
13 24 79 10 94 -10 9 -10 66 0 80 14 21 45 31 103 31 52 1 59 -1 59 -19z m430
7 c30 -15 43 -45 43 -95 0 -50 -13 -80 -43 -95 -16 -8 -36 -15 -45 -15 -32 0
-75 30 -82 58 -16 66 -2 126 35 146 35 19 56 20 92 1z m324 4 c27 -13 50 -57
44 -86 -3 -15 -14 -19 -64 -21 -59 -3 -61 -4 -56 -28 7 -38 46 -53 83 -32 24
14 29 15 29 3 0 -8 -12 -22 -26 -31 -39 -26 -94 -9 -117 36 -20 38 -17 111 5
138 25 30 64 38 102 21z m229 0 c33 -18 37 -28 37 -106 0 -58 3 -73 15 -73 8
0 15 -4 15 -10 0 -5 -16 -10 -35 -10 l-35 0 0 78 c0 96 -23 127 -64 86 -22
-22 -23 -144 -1 -144 8 0 15 -4 15 -10 0 -6 -25 -10 -57 -9 -56 0 -57 1 -35
16 19 13 22 24 22 85 0 52 -4 70 -15 74 -30 12 -15 27 23 22 20 -3 46 -2 57 3
28 11 33 11 58 -2z m534 -16 c8 -10 13 -47 13 -90 0 -42 4 -73 10 -73 6 0 10
-4 10 -10 0 -13 -43 -13 -56 0 -8 8 -15 6 -24 -5 -17 -21 -56 -19 -80 5 -42
42 -12 98 58 107 39 5 43 8 40 32 -4 35 -52 43 -61 10 -7 -26 -31 -20 -35 9
-6 42 97 54 125 15z m857 16 c27 -13 50 -57 44 -86 -3 -15 -14 -19 -64 -21
-59 -3 -61 -4 -56 -28 7 -38 46 -53 83 -32 24 14 29 15 29 3 0 -8 -12 -22 -26
-31 -39 -26 -94 -9 -117 36 -20 38 -17 111 5 138 25 30 64 38 102 21z m217 1
c10 -6 19 -17 19 -26 0 -22 -29 -29 -43 -10 -23 31 -41 2 -45 -73 -4 -67 -3
-71 17 -71 11 0 21 -4 21 -10 0 -5 -25 -10 -55 -10 -53 0 -72 11 -40 24 11 4
15 22 15 76 0 54 -4 72 -15 76 -25 10 -17 24 15 24 20 0 30 -5 30 -15 0 -12 4
-11 20 5 23 23 33 24 61 10z m529 -26 c0 -17 -6 -24 -20 -24 -25 0 -36 25 -20
45 16 20 40 7 40 -21z m-3640 -60 c0 -77 2 -86 20 -91 40 -11 18 -23 -41 -23
-37 0 -58 4 -54 10 3 6 13 10 21 10 21 0 20 148 -1 156 -27 11 -16 24 20 24
l35 0 0 -86z m1820 0 c0 -77 2 -86 20 -91 39 -10 19 -23 -35 -23 -30 0 -55 5
-55 10 0 6 7 10 15 10 12 0 15 16 15 80 0 64 -3 80 -15 80 -8 0 -15 5 -15 10
0 6 16 10 35 10 l35 0 0 -86z m2610 56 c0 -6 -35 -10 -85 -10 -50 0 -85 4 -85
10 0 6 35 10 85 10 50 0 85 -4 85 -10z m0 -75 c0 -12 -16 -15 -85 -15 -69 0
-85 3 -85 15 0 12 16 15 85 15 69 0 85 -3 85 -15z m-790 -69 c0 -28 -24 -41
-40 -21 -16 20 -5 45 20 45 14 0 20 -7 20 -24z m420 -1032 c0 -3 -11 -20 -24
-37 -66 -88 -91 -189 -84 -330 6 -107 33 -193 79 -250 40 -50 29 -61 -17 -16
-142 138 -147 445 -9 598 34 37 55 51 55 35z m562 -21 c40 -44 67 -88 84 -135
55 -157 26 -356 -67 -462 -53 -60 -81 -62 -35 -1 63 82 80 143 80 290 0 147
-17 208 -80 290 -37 49 -24 63 18 18z m-1147 -24 c11 -17 -6 -150 -18 -146 -7
2 -10 20 -9 43 5 69 -11 79 -124 79 l-98 0 -22 -87 -22 -88 52 0 c60 0 71 6
85 43 11 29 36 38 27 10 -3 -10 -12 -51 -21 -90 -18 -80 -32 -93 -37 -35 l-3
37 -55 3 -56 3 -22 -93 c-12 -51 -22 -97 -22 -101 0 -5 42 -7 94 -5 112 4 136
17 179 96 16 29 33 52 39 52 5 0 8 -6 5 -12 -3 -7 -17 -42 -32 -78 -15 -36
-32 -71 -37 -77 -8 -10 -60 -13 -199 -13 -161 0 -189 2 -189 15 0 10 11 15 35
15 31 0 35 3 44 38 22 81 91 361 91 367 0 3 -13 5 -30 5 -29 0 -38 9 -23 23
11 12 361 8 368 -4z m1046 -4 c0 -5 -8 -12 -18 -13 -10 -2 -21 -7 -26 -11 -4
-4 -27 -86 -52 -181 -24 -96 -52 -185 -62 -199 -66 -88 -219 -76 -211 17 4 41
29 63 55 46 27 -17 26 -32 -2 -58 l-27 -25 26 -12 c34 -16 72 -3 98 32 15 20
107 344 108 382 0 4 -18 7 -40 7 -29 0 -40 4 -40 15 0 13 15 15 95 13 54 -2
95 -7 96 -13z m-879 -176 c11 -13 19 -16 23 -8 4 6 23 17 41 25 29 12 39 12
67 0 90 -37 67 -214 -36 -276 -34 -21 -102 -27 -112 -10 -13 20 -22 9 -33 -41
-16 -66 -15 -67 8 -71 12 -2 22 -7 23 -13 1 -6 -29 -11 -70 -13 -59 -2 -73 0
-73 12 0 8 10 16 22 18 19 3 26 21 65 173 50 200 51 208 21 203 -15 -2 -25
-15 -36 -45 -13 -41 -32 -58 -32 -29 0 25 30 85 47 95 23 13 53 5 75 -20z
m-889 -734 c70 -140 127 -257 127 -260 0 -3 -54 -5 -120 -5 l-120 0 0 -420 0
-419 58 -3 c43 -2 57 -7 57 -18 0 -11 -14 -16 -57 -18 l-58 -3 0 -654 0 -654
58 -3 c43 -2 57 -7 57 -18 0 -11 -14 -16 -57 -18 l-58 -3 0 -654 0 -654 58 -3
c43 -2 57 -7 57 -18 0 -11 -14 -16 -57 -18 l-58 -3 0 -649 0 -650 79 0 c192 0
521 39 766 91 935 197 1834 692 2795 1537 192 169 729 705 910 909 134 151
135 152 154 133 20 -19 20 -20 0 -42 -213 -251 -769 -816 -1024 -1040 -809
-712 -1577 -1178 -2347 -1424 l-152 -49 -1 -62 0 -63 575 0 575 0 0 60 c0 47
3 60 15 60 12 0 15 -13 15 -60 l0 -60 575 0 575 0 0 60 c0 47 3 60 15 60 12 0
15 -13 15 -60 l0 -60 340 0 340 0 0 120 0 120 230 -115 c126 -63 232 -115 235
-115 3 0 5 25 5 55 0 41 4 55 14 55 16 0 23 -88 18 -210 -3 -52 -7 -70 -18
-70 -10 0 -14 14 -14 55 0 30 -2 55 -5 55 -3 0 -109 -52 -235 -115 l-230 -115
0 120 0 120 -340 0 -340 0 0 -60 c0 -47 -3 -60 -15 -60 -12 0 -15 13 -15 60
l0 60 -575 0 -575 0 0 -60 c0 -47 -3 -60 -15 -60 -12 0 -15 13 -15 60 l0 60
-575 0 -575 0 0 -61 c0 -52 -2 -60 -17 -57 -14 2 -19 15 -21 60 l-3 57 -1159
0 -1159 0 -3 -57 c-2 -45 -7 -58 -20 -60 -16 -3 -18 5 -18 57 l0 61 -575 0
-575 0 0 -60 c0 -47 -3 -60 -15 -60 -12 0 -15 13 -15 60 l0 60 -575 0 -575 0
0 -60 c0 -47 -3 -60 -15 -60 -12 0 -15 13 -15 60 l0 60 -575 0 -575 0 0 -60
c0 -47 -3 -60 -15 -60 -13 0 -15 22 -15 140 0 118 2 140 15 140 12 0 15 -13
15 -60 l0 -60 575 0 575 0 0 60 c0 47 3 60 15 60 12 0 15 -13 15 -60 l0 -60
575 0 575 0 0 60 c0 47 3 60 15 60 12 0 15 -13 15 -60 l0 -60 575 0 575 0 0
63 0 62 -178 58 c-768 250 -1523 711 -2322 1415 -255 225 -790 766 -994 1005
-49 58 -49 58 -29 78 19 20 20 20 82 -53 242 -278 700 -741 981 -990 1130
-999 2227 -1529 3349 -1617 74 -6 170 -11 213 -11 l78 0 0 650 0 649 -57 3
c-44 2 -58 7 -58 18 0 11 14 16 58 18 l57 3 0 654 0 654 -57 3 c-44 2 -58 7
-58 18 0 11 14 16 58 18 l57 3 0 654 0 654 -57 3 c-44 2 -58 7 -58 18 0 11 14
16 58 18 l57 3 0 419 0 420 -120 0 c-66 0 -120 2 -120 5 0 10 255 515 260 515
3 0 63 -115 133 -255z m6109 -4282 c20 -50 23 -75 23 -188 0 -125 -1 -133 -31
-195 -31 -66 -91 -140 -114 -140 -6 0 5 22 25 50 114 155 111 436 -5 581 -16
20 -26 40 -22 44 13 13 100 -94 124 -152z m-828 97 c-110 -154 -107 -431 7
-573 47 -58 23 -59 -30 -1 -62 67 -92 144 -98 254 -9 135 26 252 97 333 49 56
67 46 24 -13z m-374 -170 l21 -21 26 21 c32 25 64 26 94 1 21 -16 22 -22 11
-45 -7 -16 -20 -26 -32 -26 -26 0 -35 22 -20 49 9 18 8 21 -8 21 -33 0 -54
-37 -78 -136 -25 -104 -21 -134 17 -134 24 0 79 52 79 74 0 9 6 16 14 16 22 0
8 -37 -29 -76 -38 -39 -79 -45 -116 -15 -23 19 -24 19 -48 0 -43 -34 -111 -18
-111 25 0 28 24 51 45 42 18 -7 20 -37 3 -54 -9 -9 -7 -12 10 -12 38 0 59 33
83 134 24 100 21 127 -13 134 -18 4 -78 -44 -78 -63 0 -7 -7 -18 -15 -25 -13
-10 -15 -9 -15 10 0 13 17 39 39 61 45 45 88 52 121 19z m582 -4 l21 -23 35
23 c19 13 45 24 58 24 34 0 73 -20 80 -42 6 -19 8 -18 34 7 17 16 43 29 68 32
34 5 44 1 66 -20 32 -33 33 -59 1 -153 -14 -41 -25 -83 -25 -94 0 -42 48 -13
69 43 13 33 35 37 26 5 -17 -60 -78 -104 -112 -82 -36 23 -38 39 -10 131 31
100 33 125 12 143 -39 33 -106 -21 -129 -104 -9 -31 -23 -81 -31 -111 -15 -54
-37 -77 -55 -59 -5 5 1 50 16 108 14 54 24 115 22 135 -3 34 -5 36 -37 34 -49
-2 -88 -46 -107 -119 -37 -147 -44 -164 -64 -164 -26 0 -26 22 5 140 14 52 25
108 25 123 0 44 -31 30 -50 -21 -14 -38 -27 -53 -31 -37 -4 18 14 68 31 85 27
27 57 25 82 -4z"/>
<path d="M12255 9991 l-28 -30 33 -50 c18 -29 40 -51 49 -51 10 0 32 18 50 40
l32 40 -31 40 c-38 48 -66 51 -105 11z"/>
<path d="M7667 10084 c-11 -11 -8 -112 3 -119 5 -3 22 0 37 7 22 10 29 21 31
48 1 19 -1 40 -5 47 -10 14 -56 26 -66 17z"/>
<path d="M9350 10035 l0 -45 45 0 c25 0 45 -4 45 -10 0 -5 -20 -10 -45 -10
l-45 0 0 -55 0 -55 45 0 c39 0 47 4 57 25 6 14 15 25 20 25 4 0 8 -11 8 -25 0
-31 16 -33 24 -2 8 29 8 101 0 121 -3 9 -12 16 -20 16 -8 0 -14 5 -14 10 0 6
-7 10 -15 10 -8 0 -15 9 -15 20 0 17 -7 20 -45 20 l-45 0 0 -45z"/>
<path d="M11046 10004 c-10 -10 -16 -33 -16 -64 0 -73 41 -105 74 -58 31 43
10 138 -29 138 -7 0 -21 -7 -29 -16z"/>
<path d="M10205 9997 c-8 -32 11 -69 33 -65 13 2 17 14 17 43 0 34 -4 40 -22
43 -17 2 -24 -3 -28 -21z"/>
<path d="M10193 9834 c-16 -7 -17 -36 -1 -52 29 -29 103 -3 97 34 -3 15 -13
19 -44 21 -22 1 -46 0 -52 -3z"/>
<path d="M6590 10005 c-32 -38 -16 -136 23 -143 33 -7 47 17 47 79 0 47 -4 60
-19 69 -26 14 -36 13 -51 -5z"/>
<path d="M7374 10006 c-11 -30 0 -71 20 -71 26 0 40 26 32 58 -7 29 -42 38
-52 13z"/>
<path d="M7357 9833 c-13 -12 -7 -51 9 -57 31 -12 63 -6 78 16 11 16 13 25 4
35 -11 13 -79 18 -91 6z"/>
<path d="M7852 10008 c-7 -7 -12 -37 -12 -68 0 -61 11 -80 47 -80 28 0 43 27
43 80 0 23 -5 50 -10 61 -12 21 -50 25 -68 7z"/>
<path d="M8192 10008 c-6 -6 -12 -20 -12 -30 0 -14 8 -18 36 -18 33 0 35 2 32
28 -3 30 -34 42 -56 20z"/>
<path d="M8930 9920 c-16 -16 -18 -25 -10 -40 20 -37 70 -12 70 36 0 30 -31
33 -60 4z"/>
<path d="M9812 10008 c-6 -6 -12 -20 -12 -30 0 -14 8 -18 36 -18 33 0 35 2 32
28 -3 30 -34 42 -56 20z"/>
<path d="M10662 8583 c-36 -36 -71 -177 -53 -211 19 -35 64 -29 96 11 33 44
62 159 49 195 -14 39 -56 42 -92 5z"/>
<path d="M8440 2775 l0 -55 253 1 c138 1 241 4 227 6 -85 14 -252 49 -352 74
-64 16 -119 29 -122 29 -3 0 -6 -25 -6 -55z"/>
<path d="M10665 2809 c-62 -17 -319 -72 -385 -82 -14 -2 89 -5 228 -6 l252 -1
0 55 c0 63 4 61 -95 34z"/>
</g>
</svg>
