<?xml version="1.0" encoding="UTF-8"?>
<svg xmlns="http://www.w3.org/2000/svg" xmlns:xlink="http://www.w3.org/1999/xlink" width="1920" height="1080" viewBox="0 0 1920 1080">
<defs>
<g>
<g id="glyph-0-0">
<path d="M 1.375 0.03125 C 1.226562 0.03125 1.109375 0 1.015625 -0.0625 C 0.921875 -0.125 0.84375 -0.203125 0.78125 -0.296875 L 0.765625 -0.296875 L 0.6875 0 L 0.0625 0 L 0.0625 -0.15625 L 0.09375 -0.15625 C 0.1875 -0.15625 0.265625 -0.171875 0.328125 -0.203125 C 0.390625 -0.242188 0.421875 -0.320312 0.421875 -0.4375 L 0.421875 -2.53125 C 0.421875 -2.644531 0.390625 -2.71875 0.328125 -2.75 C 0.265625 -2.78125 0.1875 -2.796875 0.09375 -2.796875 L 0.0625 -2.796875 L 0.0625 -2.953125 L 0.78125 -2.953125 L 0.78125 -2.234375 C 0.78125 -2.191406 0.78125 -2.132812 0.78125 -2.0625 C 0.78125 -2 0.78125 -1.9375 0.78125 -1.875 C 0.78125 -1.8125 0.773438 -1.765625 0.765625 -1.734375 L 0.78125 -1.734375 C 0.84375 -1.859375 0.921875 -1.953125 1.015625 -2.015625 C 1.109375 -2.085938 1.226562 -2.125 1.375 -2.125 C 1.632812 -2.125 1.832031 -2.035156 1.96875 -1.859375 C 2.101562 -1.691406 2.171875 -1.421875 2.171875 -1.046875 C 2.171875 -0.671875 2.101562 -0.394531 1.96875 -0.21875 C 1.832031 -0.0507812 1.632812 0.03125 1.375 0.03125 Z M 1.3125 -0.203125 C 1.488281 -0.203125 1.613281 -0.273438 1.6875 -0.421875 C 1.757812 -0.566406 1.796875 -0.773438 1.796875 -1.046875 C 1.796875 -1.328125 1.757812 -1.535156 1.6875 -1.671875 C 1.613281 -1.804688 1.488281 -1.875 1.3125 -1.875 C 1.113281 -1.875 0.972656 -1.804688 0.890625 -1.671875 C 0.816406 -1.535156 0.78125 -1.328125 0.78125 -1.046875 C 0.78125 -0.773438 0.816406 -0.566406 0.890625 -0.421875 C 0.972656 -0.273438 1.113281 -0.203125 1.3125 -0.203125 Z "/>
</g>
</g>
</defs>
<g fill="rgb(100%, 100%, 100%)" fill-opacity="1">
<use xlink:href="#glyph-0-0" x="30" y="24.158203"/>
</g>
</svg>
