<?xml version="1.0" encoding="UTF-8"?>
<svg xmlns="http://www.w3.org/2000/svg" xmlns:xlink="http://www.w3.org/1999/xlink" width="1920" height="1080" viewBox="0 0 1920 1080">
<defs>
<g>
<g id="glyph-0-0">
<path d="M 2.890625 0.078125 C 2.335938 0.078125 1.878906 -0.0390625 1.515625 -0.28125 C 1.148438 -0.519531 0.878906 -0.851562 0.703125 -1.28125 C 0.523438 -1.71875 0.4375 -2.222656 0.4375 -2.796875 C 0.4375 -3.367188 0.523438 -3.867188 0.703125 -4.296875 C 0.878906 -4.722656 1.148438 -5.050781 1.515625 -5.28125 C 1.878906 -5.519531 2.335938 -5.640625 2.890625 -5.640625 C 3.421875 -5.640625 3.863281 -5.519531 4.21875 -5.28125 C 4.582031 -5.050781 4.859375 -4.722656 5.046875 -4.296875 C 5.234375 -3.867188 5.328125 -3.363281 5.328125 -2.78125 C 5.328125 -2.207031 5.234375 -1.707031 5.046875 -1.28125 C 4.859375 -0.851562 4.582031 -0.519531 4.21875 -0.28125 C 3.851562 -0.0390625 3.410156 0.078125 2.890625 0.078125 Z M 2.890625 -0.34375 C 3.472656 -0.34375 3.878906 -0.554688 4.109375 -0.984375 C 4.347656 -1.421875 4.46875 -2.019531 4.46875 -2.78125 C 4.46875 -3.550781 4.347656 -4.148438 4.109375 -4.578125 C 3.878906 -5.003906 3.472656 -5.21875 2.890625 -5.21875 C 2.304688 -5.21875 1.894531 -5.003906 1.65625 -4.578125 C 1.414062 -4.148438 1.296875 -3.550781 1.296875 -2.78125 C 1.296875 -2.019531 1.414062 -1.421875 1.65625 -0.984375 C 1.894531 -0.554688 2.304688 -0.34375 2.890625 -0.34375 Z "/>
</g>
</g>
</defs>
<g fill="rgb(100%, 100%, 100%)" fill-opacity="1">
<use xlink:href="#glyph-0-0" x="30" y="28.314453"/>
</g>
</svg>
