<?xml version="1.0" encoding="UTF-8"?>
<svg xmlns="http://www.w3.org/2000/svg" xmlns:xlink="http://www.w3.org/1999/xlink" width="1920" height="1080" viewBox="0 0 1920 1080">
<defs>
<g>
<g id="glyph-0-0">
<path d="M 2.015625 0.09375 C 1.660156 0.09375 1.375 0.046875 1.15625 -0.046875 C 0.945312 -0.148438 0.796875 -0.28125 0.703125 -0.4375 C 0.609375 -0.59375 0.5625 -0.753906 0.5625 -0.921875 C 0.5625 -1.046875 0.597656 -1.148438 0.671875 -1.234375 C 0.742188 -1.328125 0.851562 -1.390625 1 -1.421875 C 1.082031 -1.148438 1.207031 -0.921875 1.375 -0.734375 C 1.539062 -0.554688 1.769531 -0.46875 2.0625 -0.46875 C 2.832031 -0.46875 3.25 -1.328125 3.3125 -3.046875 C 3.1875 -2.878906 3.019531 -2.734375 2.8125 -2.609375 C 2.601562 -2.492188 2.347656 -2.4375 2.046875 -2.4375 C 1.546875 -2.4375 1.128906 -2.59375 0.796875 -2.90625 C 0.472656 -3.226562 0.3125 -3.6875 0.3125 -4.28125 C 0.3125 -4.707031 0.390625 -5.082031 0.546875 -5.40625 C 0.710938 -5.726562 0.945312 -5.976562 1.25 -6.15625 C 1.5625 -6.34375 1.925781 -6.4375 2.34375 -6.4375 C 2.78125 -6.4375 3.160156 -6.332031 3.484375 -6.125 C 3.816406 -5.914062 4.078125 -5.59375 4.265625 -5.15625 C 4.460938 -4.71875 4.5625 -4.148438 4.5625 -3.453125 C 4.5625 -2.960938 4.515625 -2.503906 4.421875 -2.078125 C 4.328125 -1.648438 4.175781 -1.273438 3.96875 -0.953125 C 3.769531 -0.628906 3.507812 -0.375 3.1875 -0.1875 C 2.863281 0 2.472656 0.09375 2.015625 0.09375 Z M 2.4375 -3.078125 C 2.644531 -3.078125 2.820312 -3.128906 2.96875 -3.234375 C 3.113281 -3.347656 3.226562 -3.5 3.3125 -3.6875 C 3.3125 -4.4375 3.226562 -4.984375 3.0625 -5.328125 C 2.894531 -5.671875 2.675781 -5.84375 2.40625 -5.84375 C 2.144531 -5.84375 1.941406 -5.710938 1.796875 -5.453125 C 1.660156 -5.203125 1.59375 -4.832031 1.59375 -4.34375 C 1.59375 -3.5 1.875 -3.078125 2.4375 -3.078125 Z "/>
</g>
<g id="glyph-0-1">
<path d="M 1.34375 -3.421875 C 1.144531 -3.421875 0.972656 -3.472656 0.828125 -3.578125 C 0.691406 -3.679688 0.625 -3.867188 0.625 -4.140625 C 0.625 -4.410156 0.691406 -4.59375 0.828125 -4.6875 C 0.972656 -4.789062 1.144531 -4.84375 1.34375 -4.84375 C 1.539062 -4.84375 1.710938 -4.789062 1.859375 -4.6875 C 2.003906 -4.59375 2.078125 -4.410156 2.078125 -4.140625 C 2.078125 -3.867188 2.003906 -3.679688 1.859375 -3.578125 C 1.710938 -3.472656 1.539062 -3.421875 1.34375 -3.421875 Z M 1.34375 0.078125 C 1.144531 0.078125 0.972656 0.0234375 0.828125 -0.078125 C 0.691406 -0.179688 0.625 -0.367188 0.625 -0.640625 C 0.625 -0.910156 0.691406 -1.09375 0.828125 -1.1875 C 0.972656 -1.289062 1.144531 -1.34375 1.34375 -1.34375 C 1.539062 -1.34375 1.710938 -1.289062 1.859375 -1.1875 C 2.003906 -1.09375 2.078125 -0.910156 2.078125 -0.640625 C 2.078125 -0.367188 2.003906 -0.179688 1.859375 -0.078125 C 1.710938 0.0234375 1.539062 0.078125 1.34375 0.078125 Z "/>
</g>
<g id="glyph-0-2">
<path d="M 2.15625 0.09375 C 1.71875 0.09375 1.359375 0.0390625 1.078125 -0.0625 C 0.796875 -0.164062 0.585938 -0.296875 0.453125 -0.453125 C 0.316406 -0.617188 0.25 -0.796875 0.25 -0.984375 C 0.25 -1.203125 0.320312 -1.367188 0.46875 -1.484375 C 0.625 -1.609375 0.800781 -1.671875 1 -1.671875 C 1 -1.296875 1.097656 -1.007812 1.296875 -0.8125 C 1.503906 -0.625 1.769531 -0.53125 2.09375 -0.53125 C 2.289062 -0.53125 2.472656 -0.566406 2.640625 -0.640625 C 2.804688 -0.722656 2.9375 -0.859375 3.03125 -1.046875 C 3.132812 -1.234375 3.1875 -1.5 3.1875 -1.84375 C 3.1875 -2.175781 3.066406 -2.453125 2.828125 -2.671875 C 2.597656 -2.890625 2.257812 -3 1.8125 -3 L 1.265625 -3 L 1.265625 -3.5625 L 1.84375 -3.5625 C 2.226562 -3.5625 2.515625 -3.679688 2.703125 -3.921875 C 2.890625 -4.160156 2.984375 -4.472656 2.984375 -4.859375 C 2.984375 -5.179688 2.921875 -5.429688 2.796875 -5.609375 C 2.671875 -5.796875 2.484375 -5.890625 2.234375 -5.890625 C 2.023438 -5.890625 1.863281 -5.820312 1.75 -5.6875 C 1.644531 -5.5625 1.570312 -5.390625 1.53125 -5.171875 C 1.488281 -4.960938 1.46875 -4.742188 1.46875 -4.515625 C 1.101562 -4.515625 0.816406 -4.578125 0.609375 -4.703125 C 0.410156 -4.835938 0.3125 -5.039062 0.3125 -5.3125 C 0.3125 -5.625 0.476562 -5.890625 0.8125 -6.109375 C 1.144531 -6.328125 1.632812 -6.4375 2.28125 -6.4375 C 2.914062 -6.4375 3.414062 -6.3125 3.78125 -6.0625 C 4.15625 -5.8125 4.34375 -5.453125 4.34375 -4.984375 C 4.34375 -4.585938 4.210938 -4.253906 3.953125 -3.984375 C 3.691406 -3.710938 3.367188 -3.515625 2.984375 -3.390625 C 3.210938 -3.347656 3.445312 -3.269531 3.6875 -3.15625 C 3.9375 -3.039062 4.144531 -2.875 4.3125 -2.65625 C 4.476562 -2.445312 4.5625 -2.171875 4.5625 -1.828125 C 4.5625 -1.472656 4.492188 -1.171875 4.359375 -0.921875 C 4.222656 -0.671875 4.039062 -0.472656 3.8125 -0.328125 C 3.582031 -0.179688 3.328125 -0.0703125 3.046875 0 C 2.765625 0.0625 2.46875 0.09375 2.15625 0.09375 Z "/>
</g>
<g id="glyph-0-3">
<path d="M 1.59375 0 L 1.59375 -0.46875 L 1.84375 -0.46875 C 2.050781 -0.46875 2.222656 -0.503906 2.359375 -0.578125 C 2.503906 -0.648438 2.578125 -0.828125 2.578125 -1.109375 L 2.578125 -1.65625 L 0.109375 -1.65625 L 0.109375 -2.203125 L 2.640625 -6.34375 L 3.875 -6.34375 L 3.875 -2.234375 L 4.796875 -2.234375 L 4.796875 -1.65625 L 3.875 -1.65625 L 3.875 -1.109375 C 3.875 -0.828125 3.941406 -0.648438 4.078125 -0.578125 C 4.222656 -0.503906 4.398438 -0.46875 4.609375 -0.46875 L 4.71875 -0.46875 L 4.71875 0 Z M 0.734375 -2.234375 L 2.578125 -2.234375 L 2.578125 -3.796875 C 2.578125 -4.054688 2.582031 -4.335938 2.59375 -4.640625 C 2.601562 -4.941406 2.617188 -5.226562 2.640625 -5.5 C 2.609375 -5.425781 2.5625 -5.332031 2.5 -5.21875 C 2.4375 -5.101562 2.367188 -4.976562 2.296875 -4.84375 C 2.222656 -4.707031 2.148438 -4.582031 2.078125 -4.46875 C 2.015625 -4.351562 1.96875 -4.269531 1.9375 -4.21875 Z "/>
</g>
</g>
</defs>
<g fill="rgb(98.823529%, 38.431373%, 33.333333%)" fill-opacity="1">
<use xlink:href="#glyph-0-0" x="30" y="29.50293"/>
<use xlink:href="#glyph-0-1" x="35" y="29.50293"/>
<use xlink:href="#glyph-0-2" x="38" y="29.50293"/>
<use xlink:href="#glyph-0-1" x="43" y="29.50293"/>
<use xlink:href="#glyph-0-3" x="46" y="29.50293"/>
</g>
</svg>
