<?xml version="1.0" encoding="UTF-8"?>
<svg xmlns="http://www.w3.org/2000/svg" xmlns:xlink="http://www.w3.org/1999/xlink" width="1920" height="1080" viewBox="0 0 1920 1080">
<defs>
<g>
<g id="glyph-0-0">
<path d="M 2.015625 0.09375 C 1.660156 0.09375 1.375 0.046875 1.15625 -0.046875 C 0.945312 -0.148438 0.796875 -0.28125 0.703125 -0.4375 C 0.609375 -0.59375 0.5625 -0.753906 0.5625 -0.921875 C 0.5625 -1.046875 0.597656 -1.148438 0.671875 -1.234375 C 0.742188 -1.328125 0.851562 -1.390625 1 -1.421875 C 1.082031 -1.148438 1.207031 -0.921875 1.375 -0.734375 C 1.539062 -0.554688 1.769531 -0.46875 2.0625 -0.46875 C 2.832031 -0.46875 3.25 -1.328125 3.3125 -3.046875 C 3.1875 -2.878906 3.019531 -2.734375 2.8125 -2.609375 C 2.601562 -2.492188 2.347656 -2.4375 2.046875 -2.4375 C 1.546875 -2.4375 1.128906 -2.59375 0.796875 -2.90625 C 0.472656 -3.226562 0.3125 -3.6875 0.3125 -4.28125 C 0.3125 -4.707031 0.390625 -5.082031 0.546875 -5.40625 C 0.710938 -5.726562 0.945312 -5.976562 1.25 -6.15625 C 1.5625 -6.34375 1.925781 -6.4375 2.34375 -6.4375 C 2.78125 -6.4375 3.160156 -6.332031 3.484375 -6.125 C 3.816406 -5.914062 4.078125 -5.59375 4.265625 -5.15625 C 4.460938 -4.71875 4.5625 -4.148438 4.5625 -3.453125 C 4.5625 -2.960938 4.515625 -2.503906 4.421875 -2.078125 C 4.328125 -1.648438 4.175781 -1.273438 3.96875 -0.953125 C 3.769531 -0.628906 3.507812 -0.375 3.1875 -0.1875 C 2.863281 0 2.472656 0.09375 2.015625 0.09375 Z M 2.4375 -3.078125 C 2.644531 -3.078125 2.820312 -3.128906 2.96875 -3.234375 C 3.113281 -3.347656 3.226562 -3.5 3.3125 -3.6875 C 3.3125 -4.4375 3.226562 -4.984375 3.0625 -5.328125 C 2.894531 -5.671875 2.675781 -5.84375 2.40625 -5.84375 C 2.144531 -5.84375 1.941406 -5.710938 1.796875 -5.453125 C 1.660156 -5.203125 1.59375 -4.832031 1.59375 -4.34375 C 1.59375 -3.5 1.875 -3.078125 2.4375 -3.078125 Z "/>
</g>
<g id="glyph-0-1">
<path d="M 1.34375 -3.421875 C 1.144531 -3.421875 0.972656 -3.472656 0.828125 -3.578125 C 0.691406 -3.679688 0.625 -3.867188 0.625 -4.140625 C 0.625 -4.410156 0.691406 -4.59375 0.828125 -4.6875 C 0.972656 -4.789062 1.144531 -4.84375 1.34375 -4.84375 C 1.539062 -4.84375 1.710938 -4.789062 1.859375 -4.6875 C 2.003906 -4.59375 2.078125 -4.410156 2.078125 -4.140625 C 2.078125 -3.867188 2.003906 -3.679688 1.859375 -3.578125 C 1.710938 -3.472656 1.539062 -3.421875 1.34375 -3.421875 Z M 1.34375 0.078125 C 1.144531 0.078125 0.972656 0.0234375 0.828125 -0.078125 C 0.691406 -0.179688 0.625 -0.367188 0.625 -0.640625 C 0.625 -0.910156 0.691406 -1.09375 0.828125 -1.1875 C 0.972656 -1.289062 1.144531 -1.34375 1.34375 -1.34375 C 1.539062 -1.34375 1.710938 -1.289062 1.859375 -1.1875 C 2.003906 -1.09375 2.078125 -0.910156 2.078125 -0.640625 C 2.078125 -0.367188 2.003906 -0.179688 1.859375 -0.078125 C 1.710938 0.0234375 1.539062 0.078125 1.34375 0.078125 Z "/>
</g>
<g id="glyph-0-2">
<path d="M 1.109375 0 L 3.46875 -5.375 L 1.5 -5.375 C 1.1875 -5.375 1.015625 -5.222656 0.984375 -4.921875 L 0.921875 -4.484375 L 0.390625 -4.484375 L 0.4375 -6.34375 L 4.671875 -6.34375 L 4.671875 -5.90625 L 2.21875 0 Z "/>
</g>
</g>
</defs>
<g fill="rgb(51.372549%, 75.686275%, 40.392157%)" fill-opacity="1">
<use xlink:href="#glyph-0-0" x="30" y="29.50293"/>
<use xlink:href="#glyph-0-1" x="35" y="29.50293"/>
<use xlink:href="#glyph-0-2" x="38" y="29.50293"/>
</g>
</svg>
